<?xml version="1.0" encoding="UTF-8"?>
<svg width="376px" height="251px" viewBox="0 0 376 251" version="1.1" xmlns="http://www.w3.org/2000/svg" xmlns:xlink="http://www.w3.org/1999/xlink">
    <!-- Generator: Sketch 53.1 (72631) - https://sketchapp.com -->
    <title>ID</title>
    <desc>Created with Sketch.</desc>
    <g id="Current" stroke="none" stroke-width="1" fill="none" fill-rule="evenodd">
        <g id="Step-1.b1" transform="translate(-532.000000, -455.000000)">
            <g id="Cam-visor" transform="translate(445.000000, 426.000000)">
                <g id="ID" transform="translate(87.000000, 29.000000)">
                    <g id="Grid" fill="#FFFFFF">
                        <rect id="Rectangle" x="22" y="1.5" width="1" height="248"></rect>
                        <rect id="Rectangle" transform="translate(188.000000, 20.500000) rotate(-270.000000) translate(-188.000000, -20.500000) " x="187.5" y="-167.5" width="1" height="376"></rect>
                        <rect id="Rectangle" transform="translate(188.000000, 228.500000) rotate(-270.000000) translate(-188.000000, -228.500000) " x="187.5" y="40.5" width="1" height="376"></rect>
                        <rect id="Rectangle" x="353" y="0.5" width="1" height="250"></rect>
                    </g>
                    <rect id="Rectangle" fill-opacity="0.4" fill="#CED4DA" x="23" y="21" width="330" height="207" rx="14"></rect>
                    <rect id="Rectangle" fill-opacity="0.3" fill="#4263EB" x="174" y="89" width="112" height="14"></rect>
                    <rect id="Rectangle" fill-opacity="0.3" fill="#4263EB" x="174" y="71" width="112" height="14"></rect>
                    <rect id="Rectangle" fill-opacity="0.6" fill="#4263EB" x="174" y="131" width="162" height="30"></rect>
                    <rect id="Rectangle" fill-opacity="0.3" fill="#4263EB" x="174" y="173" width="54" height="13"></rect>
                    <rect id="Rectangle" fill-opacity="0.3" fill="#4263EB" x="174" y="115" width="54" height="12"></rect>
                    <rect id="Rectangle" fill-opacity="0.6" fill="#4263EB" x="174" y="190" width="162" height="21"></rect>
                    <rect id="Rectangle" fill-opacity="0.4" fill="#4263EB" x="40" y="33" width="296" height="26"></rect>
                    <rect id="Rectangle" fill-opacity="0.6" fill="#4263EB" x="40" y="71" width="117" height="140"></rect>
                </g>
            </g>
        </g>
    </g>
</svg>